<?xml version="1.0" encoding="UTF-8"?>
<svg id="Layer_2" data-name="Layer 2" xmlns="http://www.w3.org/2000/svg" viewBox="0 0 149.46 62.87">
  <defs>
    <style>
      .cls-1 {
        fill: #ffcc0b;
      }

      .cls-2 {
        fill: #232323;
      }

      .cls-3 {
        fill: #2b2c7c;
      }
    </style>
  </defs>
  <g id="LIGHT">
    <g>
      <path class="cls-2" d="m88.72,3.21h-32.91c-.48,0-.87.39-.87.87s.39.87.87.87h32.91c7.1,0,12.87,5.37,12.87,11.97s-5.77,11.97-12.87,11.97h-12.24c-.34,0-.64.2-.79.5-.14.3-.09.67.12.92l15.57,18.45c.17.2.41.31.66.31.2,0,.4-.07.56-.2.36-.31.41-.86.1-1.22l-14.37-17.02h10.38c8.05,0,14.6-6.15,14.6-13.7s-6.55-13.7-14.6-13.7Z"/>
      <path class="cls-2" d="m147.08,35.48c-3.58,7.15-10.75,11.59-18.72,11.59-11.54,0-20.93-9.39-20.93-20.93s9.39-20.93,20.93-20.93c7.97,0,15.14,4.44,18.72,11.59l.05.1h2.33l-.11-.24c-3.74-8.23-11.97-13.55-20.99-13.55-12.7,0-23.04,10.34-23.04,23.04s10.33,23.04,23.04,23.04c9.01,0,17.25-5.32,20.99-13.55l.11-.24h-2.33l-.05.1Z"/>
    </g>
    <g>
      <path class="cls-2" d="m20.32,62.74l1.96-2.16h1.69c.36,0,.79,0,1.01.02-.08-.12-.28-.47-.39-.71l-.92-1.83-4.2,4.68h-3.47c4.72-2.77,6.39-6.71,6.39-6.71,0,0,.23-1.1,1.85-.96.79,0,1.22.42,1.5.96l3.5,6.71h-8.9Z"/>
      <path class="cls-2" d="m34.34,62.74c-2.39,0-3.97-1.42-3.97-3.32,0-2.48,2.38-4.21,5.3-4.21h5.41l-2.07,2.19h-3.74c-1.38,0-2.27.47-2.27,1.8,0,.91.65,1.37,1.72,1.37h5.4l-2.05,2.16h-3.74Z"/>
      <path class="cls-2" d="m46.03,62.74c-2.39,0-3.97-1.42-3.97-3.32,0-2.48,2.38-4.21,5.3-4.21h5.41l-2.07,2.19h-3.74c-1.38,0-2.27.47-2.27,1.8,0,.91.65,1.37,1.72,1.37h5.4l-2.05,2.16h-3.74Z"/>
      <path class="cls-2" d="m53.38,62.74l1.34-7.53h8.89l-2.08,2.19h-4.6l-.1.63h5.83l-1.78,1.83h-4.38l-.12.71h6.31l-2.06,2.16h-7.25Z"/>
      <path class="cls-2" d="m64.21,62.74l1.34-7.53h2.6l-.96,5.37h5.73l-2.07,2.16h-6.64Z"/>
      <path class="cls-2" d="m74.43,62.74l1.34-7.53h8.89l-2.08,2.19h-4.6l-.1.63h5.83l-1.78,1.83h-4.38l-.12.71h6.31l-2.06,2.16h-7.25Z"/>
      <path class="cls-2" d="m92.66,62.74l-1.09-1.87h-3.4l-.34,1.87h-2.6l.69-3.94h6.82c.71,0,1.09-.27,1.09-.83,0-.39-.29-.56-.84-.56h-6.81l2.09-2.19h4.77c1.56,0,3.54.45,3.54,2.32,0,1.32-.89,2.49-2.3,2.81.17.13.6.59,1.42,1.78l.43.62h-3.48Z"/>
      <path class="cls-2" d="m101.44,62.74l1.96-2.16h1.69c.36,0,.79,0,1.01.02-.08-.12-.28-.47-.39-.71l-.92-1.83-4.2,4.68h-3.08l6-6.71c.45-.51,1.04-.96,1.85-.96s1.22.42,1.5.96l3.5,6.71h-8.9Z"/>
      <path class="cls-2" d="m112.55,62.74l.93-5.33h-3.42l2.08-2.19h8.51l-2.08,2.19h-2.47l-.93,5.33h-2.61Z"/>
      <path class="cls-2" d="m125.42,62.87c-3.32,0-5.01-1.01-5.01-3.21,0-3.09,2.09-4.57,6.39-4.57,3.32,0,5.01,1,5.01,3.18,0,3.11-2.1,4.59-6.39,4.59Zm.98-5.58c-3.02,0-3.36.33-3.36,2.1,0,1.11.8,1.28,2.78,1.28,3.02,0,3.36-.34,3.36-2.12,0-1.1-.8-1.27-2.78-1.27Z"/>
      <path class="cls-2" d="m140.77,62.74l-1.09-1.87h-3.4l-.34,1.87h-2.6l.69-3.94h6.82c.71,0,1.09-.27,1.09-.83,0-.39-.29-.56-.84-.56h-6.81l2.09-2.19h4.77c1.56,0,3.54.45,3.54,2.32,0,1.32-.89,2.49-2.3,2.81.17.13.6.59,1.42,1.78l.43.62h-3.48Z"/>
    </g>
    <g>
      <path class="cls-1" d="m67.64,42.9l-23.12-29.54c-.09.35-.03.11-.12.48l22.12,29.06H30.28c-.24.3-.48.59-.72.89h38.78l-.7-.89Z"/>
      <path class="cls-1" d="m71.93,45L45.12,10.75c-.08.37-.02.09-.1.47l25.79,33.78H28.55c-.25.3-.51.59-.77.89h44.85l-.7-.89Z"/>
      <path class="cls-1" d="m76.24,47.1L45.64,8.01c-.07.38,0,.07-.09.47l29.55,38.61H26.68c-.28.3-.55.6-.83.89h51.09l-.7-.89Z"/>
      <path class="cls-1" d="m80.42,49.2L46.06,5.31c-.05.38,0,.04-.07.47l33.29,43.42H24.65c-.3.3-.6.6-.9.89h57.37l-.7-.89Z"/>
      <path class="cls-1" d="m84.45,51.15L46.39,2.74c-.05.38,0,.04-.07.47l37,47.94H22.68c-.3.3-.6.6-.9.89h63.37l-.7-.89Z"/>
    </g>
    <path class="cls-3" d="m0,47.53S35.76,40.98,44.9,0c0,0-1.24,33.68-29.77,54.5,0,0,2.45-8.82-15.14-6.97Z"/>
  </g>
</svg>